<svg width="18" height="18" viewBox="0 0 18 18" fill="none" xmlns="http://www.w3.org/2000/svg">
<path d="M15.9129 7.58579C17.8656 9.53841 17.8656 12.7042 15.9129 14.6569L12.4836 18.0862C10.531 20.0388 7.36517 20.0388 5.41255 18.0862L8.94809 13.1364L13.7916 8.29289C14.5727 7.51184 15.2058 6.87868 15.2058 6.87868L15.9129 7.58579ZM0.569023 9L8.94809 0.620937L0.569023 9ZM8.94809 0.620937L17.3271 9L8.94809 0.620937ZM12.4836 18.0862C10.531 20.0388 7.36517 20.0388 5.41255 18.0862L1.98324 14.6569C0.0306149 12.7042 0.0306149 9.53841 1.98324 7.58579L2.69034 6.87868C2.69034 6.87868 3.32351 7.51184 4.10456 8.29289L8.94809 13.1364L12.4836 18.0862Z" fill="white" mask="url(#path-1-inside-1_1098_47430)"/>
</svg>
