<svg width="32" height="32" viewBox="0 0 32 32" fill="none" xmlns="http://www.w3.org/2000/svg">
<g clip-path="url(#clip0_1190_71707)">
<path d="M17.376 16.9443L22.7458 11.9434C22.981 11.7239 23.1131 11.4262 23.1131 11.1158C23.1131 10.8054 22.981 10.5076 22.7458 10.2881C22.5107 10.0686 22.1918 9.94531 21.8592 9.94531C21.5266 9.94531 21.2077 10.0686 20.9726 10.2881L15.6152 15.3007L10.2579 10.2881C10.0228 10.0686 9.70382 9.94531 9.37127 9.94531C9.03871 9.94531 8.71978 10.0686 8.48463 10.2881C8.24947 10.5076 8.11737 10.8054 8.11737 11.1158C8.11737 11.4262 8.24947 11.7239 8.48463 11.9434L13.8544 16.9443L8.48463 21.9452C8.36758 22.0536 8.27468 22.1825 8.21128 22.3245C8.14788 22.4666 8.11523 22.619 8.11523 22.7728C8.11523 22.9267 8.14788 23.0791 8.21128 23.2212C8.27468 23.3632 8.36758 23.4921 8.48463 23.6005C8.60072 23.7098 8.73883 23.7965 8.89101 23.8557C9.04319 23.9148 9.20641 23.9453 9.37127 23.9453C9.53612 23.9453 9.69935 23.9148 9.85153 23.8557C10.0037 23.7965 10.1418 23.7098 10.2579 23.6005L15.6152 18.588L20.9726 23.6005C21.0886 23.7098 21.2268 23.7965 21.3789 23.8557C21.5311 23.9148 21.6943 23.9453 21.8592 23.9453C22.0241 23.9453 22.1873 23.9148 22.3395 23.8557C22.4916 23.7965 22.6298 23.7098 22.7458 23.6005C22.8629 23.4921 22.9558 23.3632 23.0192 23.2212C23.0826 23.0791 23.1152 22.9267 23.1152 22.7728C23.1152 22.619 23.0826 22.4666 23.0192 22.3245C22.9558 22.1825 22.8629 22.0536 22.7458 21.9452L17.376 16.9443Z" fill="white"/>
</g>
<circle cx="16" cy="16" r="15.5" stroke="white"/>
<defs>
<clipPath id="clip0_1190_71707">
<rect width="16" height="16" fill="white" transform="translate(8.61523 7.72656)"/>
</clipPath>
</defs>
</svg>
